# xmcd
#
# Track frame offsets: 
#        150
#        34238
#        63556
#        93788
#        120987
#        141343
#        170739
#        204908
#        226701
#        247778
#        272334
#        297223
#
# Disc length: 4255 seconds
#
# Revision: 3
# Processed by: cddbd v1.5.2PL0 Copyright (c) Steve Scherf et al.
# Submitted via: ExactAudioCopy v1.0b3
#
DISCID=9c109d0c
DTITLE=???? - Piazzollamor
DYEAR=2017
DGENRE=Jazz
TTITLE0=??????????
TTITLE1=??????
TTITLE2=??????
TTITLE3=???????
TTITLE4=??????? '70
TTITLE5=???????
TTITLE6=?????????????
TTITLE7=??????????
TTITLE8=?????????
TTITLE9=???
TTITLE10=????????
TTITLE11=????????
EXTD=YEAR: 2017
EXTT0=
EXTT1=
EXTT2=
EXTT3=
EXTT4=
EXTT5=
EXTT6=
EXTT7=
EXTT8=
EXTT9=
EXTT10=
EXTT11=
PLAYORDER=
